MoBL_ARMS_module2_4_allmuscles_states	
version=1	
nRows=337	
nColumns=2	
inDegrees=yes	
	
# SIMM Motion File Header:	
name MoBL_ARMS_module2_4_allmuscles_states	
datacolumns 2	
datarows 337	
otherdata 1	
range 0 0.516841438	
endheader	
time	flexion
0	0
0.00279366	0.021547964
0.006663885	0.118775494
0.010534111	0.286229315
0.012054554	0.369209615
0.013574996	0.461041608
0.015095438	0.561170114
0.016615881	0.669049976
0.018136323	0.784152672
0.019656766	0.905971067
0.021177208	1.034022364
0.022697651	1.167849568
0.024218093	1.307021094
0.025738535	1.451129633
0.027258978	1.599791205
0.02877942	1.752644325
0.030299863	1.909348092
0.031820305	2.069580867
0.033340748	2.233039072
0.03486119	2.399436098
0.036381632	2.568501318
0.037902075	2.739979198
0.039422517	2.913628502
0.04094296	3.08922159
0.042463402	3.266543791
0.043983845	3.445392859
0.045504287	3.625578505
0.047024729	3.806921972
0.048545172	3.989255649
0.050065614	4.17242264
0.051586057	4.356276
0.053106499	4.540678335
0.054626941	4.725500513
0.056147384	4.91062011
0.057667826	5.095920452
0.059188269	5.28129026
0.060708711	5.466623394
0.062229154	5.651818614
0.063749596	5.836779358
0.065270038	6.021413537
0.066790481	6.20563334
0.068310923	6.389355048
0.069831366	6.572498864
0.071351808	6.754988749
0.072872251	6.936752264
0.074392693	7.117720424
0.075913135	7.297827283
0.077433578	7.477009904
0.07895402	7.6552091
0.080474463	7.832368303
0.081994905	8.008433937
0.083515348	8.183355197
0.08503579	8.357083835
0.086556232	8.529574077
0.088076675	8.700782543
0.089597117	8.870668167
0.09111756	9.039192111
0.092638002	9.206317695
0.094158444	9.372010315
0.095678887	9.536237372
0.097199329	9.698968202
0.098719772	9.860174009
0.100240214	10.0198278
0.101760657	10.17790433
0.103281099	10.33438002
0.104801541	10.48923293
0.106321984	10.64244268
0.107842426	10.79399043
0.109362869	10.94385878
0.110883311	11.09203176
0.112403754	11.23849466
0.113924196	11.38323405
0.115444638	11.52623807
0.116965081	11.66749605
0.118485523	11.80699849
0.120005966	11.94473704
0.121526408	12.08070448
0.123046851	12.21489591
0.124567293	12.34731004
0.126087735	12.47794262
0.127608178	12.60679003
0.12912862	12.7338509
0.130649063	12.85912288
0.132169505	12.98260482
0.133689947	13.10429638
0.13521039	13.2241988
0.136730832	13.34231414
0.138251275	13.45864527
0.139771717	13.57319581
0.14129216	13.68597015
0.142812602	13.79697342
0.144333044	13.90621141
0.145853487	14.01369059
0.147373929	14.11941808
0.148894372	14.22340162
0.150414814	14.32564954
0.151935257	14.4261705
0.153455699	14.52497386
0.154976141	14.62206963
0.156496584	14.71746833
0.158017026	14.81118084
0.159537469	14.90321844
0.161057911	14.99359319
0.162578354	15.08231752
0.164098796	15.16940424
0.165619238	15.25486655
0.167139681	15.33871798
0.168660123	15.42097246
0.170180566	15.50164422
0.171701008	15.58074784
0.17322145	15.65829818
0.174741893	15.7343104
0.176262335	15.80879995
0.177782778	15.88178253
0.17930322	15.95327405
0.180823663	16.0232907
0.182344105	16.09184875
0.183864547	16.15896479
0.18538499	16.22465563
0.186905432	16.28893825
0.188425875	16.35182981
0.189946317	16.41334759
0.19146676	16.47350896
0.192987202	16.53233142
0.194507644	16.58983258
0.196028087	16.64603015
0.197548529	16.70094191
0.199068972	16.75458569
0.200589414	16.80697943
0.202109857	16.85814106
0.203630299	16.90808859
0.205150741	16.95684004
0.206671184	17.00441344
0.208191626	17.05082685
0.209712069	17.09609829
0.211232511	17.1402458
0.212752953	17.1832874
0.214273396	17.22524107
0.215793838	17.26612472
0.217314281	17.30595626
0.218834723	17.34475352
0.220355166	17.38253426
0.221875608	17.41931618
0.22339605	17.4551169
0.224916493	17.48995395
0.226436935	17.52384477
0.227957378	17.5568067
0.22947782	17.58885697
0.230998263	17.62001271
0.232518705	17.65029093
0.234039147	17.6797085
0.23555959	17.70828218
0.237080032	17.73602859
0.238600475	17.76296421
0.240120917	17.78910537
0.24164136	17.81446828
0.243161802	17.83906897
0.244682244	17.86292332
0.246202687	17.88604706
0.247723129	17.90845573
0.249243572	17.93016475
0.250764014	17.95118933
0.252284456	17.97154451
0.253804899	17.99124519
0.255325341	18.01030605
0.256845784	18.02874161
0.258366226	18.0465662
0.259886669	18.06379398
0.261407111	18.0804389
0.262927553	18.09651474
0.264447996	18.11203509
0.265968438	18.12701335
0.267488881	18.14146271
0.269009323	18.15539618
0.270529766	18.16882658
0.272050208	18.18176654
0.27357065	18.19422847
0.275091093	18.20622461
0.276611535	18.21776699
0.278131978	18.22886745
0.27965242	18.23953763
0.281172863	18.24978897
0.282693305	18.25963274
0.284213747	18.26907999
0.28573419	18.27814157
0.287254632	18.28682815
0.288775075	18.29515022
0.290295517	18.30311804
0.291815959	18.31074172
0.293336402	18.31803116
0.294856844	18.32499608
0.296377287	18.33164598
0.297897729	18.3379902
0.299418172	18.34403789
0.300938614	18.34979801
0.302459056	18.35527933
0.303979499	18.36049045
0.305499941	18.36543979
0.307020384	18.37013559
0.308540826	18.37458591
0.310061269	18.37879863
0.311581711	18.38278147
0.313102153	18.38654197
0.314622596	18.39008751
0.316143038	18.39342528
0.317663481	18.39656233
0.319183923	18.39950553
0.320704366	18.40226161
0.322224808	18.4048371
0.32374525	18.40723842
0.325265693	18.4094718
0.326786135	18.41154333
0.328306578	18.41345896
0.32982702	18.41522447
0.331347462	18.41684551
0.332867905	18.41832757
0.334388347	18.41967602
0.33590879	18.42089606
0.337429232	18.42199279
0.338949675	18.42297114
0.340470117	18.42383593
0.341990559	18.42459184
0.343511002	18.42524342
0.345031444	18.42579509
0.346551887	18.42625117
0.348072329	18.42661582
0.349592772	18.42689312
0.351113214	18.427087
0.352633656	18.42720129
0.354154099	18.42723971
0.355674541	18.42720586
0.357194984	18.42710325
0.358715426	18.42693525
0.360235869	18.42670516
0.361756311	18.42641615
0.363276753	18.42607133
0.364797196	18.42567366
0.366317638	18.42522604
0.367838081	18.42473127
0.369358523	18.42419205
0.370878965	18.423611
0.372399408	18.42299065
0.37391985	18.42233343
0.375440293	18.42164172
0.376960735	18.42091778
0.378481178	18.42016382
0.38000162	18.41938195
0.381522062	18.41857422
0.383042505	18.4177426
0.384562947	18.41688899
0.38608339	18.41601521
0.387603832	18.41512302
0.389124275	18.41421411
0.390644717	18.41329011
0.392165159	18.41235258
0.393685602	18.41140303
0.395206044	18.41044288
0.396726487	18.40947354
0.398246929	18.4084963
0.399767372	18.40751246
0.401287814	18.40652322
0.402808256	18.40552974
0.404328699	18.40453313
0.405849141	18.40353446
0.407369584	18.40253475
0.408890026	18.40153495
0.410410468	18.40053598
0.411930911	18.39953873
0.413451353	18.39854403
0.414971796	18.39755268
0.416492238	18.39656541
0.418012681	18.39558296
0.419533123	18.39460599
0.421053565	18.39363514
0.422574008	18.39267102
0.42409445	18.3917142
0.425614893	18.39076521
0.427135335	18.38982456
0.428655778	18.38889272
0.43017622	18.38797013
0.431696662	18.38705722
0.433217105	18.38615436
0.434737547	18.38526191
0.43625799	18.38438021
0.437778432	18.38350957
0.439298874	18.38265027
0.440819317	18.38180257
0.442339759	18.38096671
0.443860202	18.38014291
0.445380644	18.37933136
0.446901087	18.37853224
0.448421529	18.3777457
0.449941971	18.37697189
0.451462414	18.37621092
0.452982856	18.3754629
0.454503299	18.37472791
0.456023741	18.37400603
0.457544184	18.3732973
0.459064626	18.37260179
0.460585068	18.3719195
0.462105511	18.37125047
0.463625953	18.37059468
0.465146396	18.36995213
0.466666838	18.36932281
0.468187281	18.36870668
0.469707723	18.36810369
0.471228165	18.3675138
0.472748608	18.36693694
0.47426905	18.36637305
0.475789493	18.36582205
0.477309935	18.36528385
0.478830377	18.36475836
0.48035082	18.36424548
0.481871262	18.3637451
0.483391705	18.36325711
0.484912147	18.36278139
0.48643259	18.36231781
0.487953032	18.36186625
0.489473474	18.36142656
0.490993917	18.36099862
0.492514359	18.36058228
0.494034802	18.36017739
0.495555244	18.3597838
0.497075687	18.35940136
0.498596129	18.35902991
0.500116571	18.35866929
0.501637014	18.35831935
0.503157456	18.35797991
0.504677899	18.35765081
0.506198341	18.35733188
0.507718784	18.35702296
0.509239226	18.35672388
0.510759668	18.35643446
0.512280111	18.35615454
0.513800553	18.35588393
0.515320996	18.35562247
0.516841438	18.35536998
